<svg width="1366" height="4891" viewBox="0 0 1366 4891" fill="none" xmlns="http://www.w3.org/2000/svg">
<path d="M830.121 4890.5C880.63 4767.04 1827.53 4506.42 1076.19 4506.42C31.6226 4506.42 -226.379 3945.5 219.047 3771.21C461.623 3676.29 1310.62 3123.44 1076.19 2998.36C642.462 2766.94 -208.527 2687.21 95.0256 2370.54C398.578 2053.88 1395.25 2207.44 1294.23 1878.23C1213.42 1614.86 491.121 1466.5 171.121 1418C130.581 1412.33 69.2001 1388.2 148 1337C204.333 1322.33 342.7 1295 445.5 1303C667 1302.5 1124.2 1291.8 1181 1253C1196 1252 1173.4 1218.8 963 1094C752.6 969.2 407 741.333 260.5 643C152 577 -49.3004 408.8 13.4996 264C91.9996 83 497.5 154 549.5 139C601.5 124 1369.5 198 1280.5 93.5C1263.67 70.3333 1232 19.3 1240 0.5" stroke="#006E99" stroke-opacity="0.25" stroke-width="2" stroke-dasharray="12 12"/>
</svg>
