<svg width="62" height="57" viewBox="0 0 62 57" fill="none" xmlns="http://www.w3.org/2000/svg">
<path d="M61.6254 26.9206C55.7881 15.4744 44.232 7.72998 30.9999 7.72998C17.7679 7.72998 6.20855 15.4798 0.374524 26.9217C0.128292 27.4112 0 27.952 0 28.5005C0 29.049 0.128292 29.5899 0.374524 30.0794C6.21178 41.5256 17.7679 49.27 30.9999 49.27C44.232 49.27 55.7913 41.5202 61.6254 30.0783C61.8716 29.5888 61.9999 29.0479 61.9999 28.4994C61.9999 27.9509 61.8716 27.4101 61.6254 26.9206ZM30.9999 44.0775C27.9343 44.0775 24.9376 43.1639 22.3886 41.4522C19.8396 39.7405 17.853 37.3076 16.6798 34.4612C15.5066 31.6148 15.1997 28.4827 15.7978 25.461C16.3958 22.4392 17.8721 19.6636 20.0398 17.485C22.2075 15.3065 24.9693 13.8229 27.976 13.2218C30.9827 12.6207 34.0993 12.9292 36.9315 14.1082C39.7638 15.2873 42.1846 17.2839 43.8877 19.8456C45.5909 22.4073 46.4999 25.419 46.4999 28.5C46.5009 30.5459 46.1007 32.572 45.3221 34.4624C44.5435 36.3528 43.4018 38.0705 41.9623 39.5172C40.5228 40.9639 38.8137 42.1113 36.9327 42.8937C35.0517 43.6762 33.0357 44.0785 30.9999 44.0775ZM30.9999 18.115C30.0776 18.1279 29.1612 18.2658 28.2756 18.525C29.0056 19.522 29.356 20.749 29.263 21.9833C29.1701 23.2177 28.6401 24.3777 27.7692 25.253C26.8982 26.1284 25.7439 26.661 24.5157 26.7544C23.2875 26.8478 22.0666 26.4957 21.0746 25.762C20.5096 27.8537 20.6116 30.0708 21.3661 32.1012C22.1207 34.1316 23.4897 35.8731 25.2807 37.0805C27.0716 38.288 29.1942 38.9006 31.3497 38.8322C33.5053 38.7638 35.5852 38.0177 37.2967 36.6991C39.0082 35.3804 40.2652 33.5555 40.8907 31.4813C41.5162 29.4071 41.4787 27.188 40.7836 25.1363C40.0884 23.0846 38.7705 21.3036 37.0155 20.0441C35.2604 18.7846 33.1565 18.1099 30.9999 18.115Z" fill="white"/>
</svg>
