<svg width="56" height="56" viewBox="0 0 56 56" fill="none" xmlns="http://www.w3.org/2000/svg">
<path d="M54.4536 11.2397C54.2204 10.7604 53.8649 10.3509 53.4231 10.0527C52.9812 9.75455 52.4685 9.57809 51.9367 9.54117L49.3098 9.29984L53.932 4.63609C54.226 4.33474 54.3891 3.92941 54.3857 3.50837C54.3823 3.08733 54.2126 2.6847 53.9137 2.38816C53.6148 2.09163 53.2108 1.92521 52.7898 1.92515C52.3687 1.9251 51.9647 2.09141 51.6657 2.38787L47.0187 7.07655L46.7704 4.37499C46.7336 3.84349 46.5573 3.33108 46.2594 2.88935C45.9616 2.44762 45.5526 2.09216 45.0736 1.85875C44.5368 1.61107 43.9368 1.53467 43.355 1.63993C42.7733 1.7452 42.238 2.02702 41.8221 2.4471L38.3785 5.89154C38.2125 6.05756 38.0851 6.25807 38.0052 6.47884C37.9254 6.69962 37.8951 6.93526 37.9166 7.16904L38.5165 13.6924C38.5679 14.2512 38.4963 14.8145 38.3067 15.3427C38.1171 15.8708 37.8141 16.3511 37.4191 16.7496L25.3925 28.8805C25.2443 29.0299 25.1269 29.207 25.0471 29.4017C24.9673 29.5965 24.9267 29.8051 24.9275 30.0155C24.9284 30.226 24.9707 30.4342 25.052 30.6283C25.1334 30.8224 25.2522 30.9986 25.4017 31.1468C25.5493 31.2938 25.7247 31.4099 25.9176 31.4884C26.1106 31.5668 26.3173 31.606 26.5256 31.6036C26.7358 31.6043 26.9441 31.5635 27.1386 31.4836C27.3331 31.4037 27.5098 31.2861 27.6588 31.1377L39.755 18.937C40.154 18.5346 40.637 18.2254 41.1695 18.0316C41.702 17.8378 42.2708 17.7642 42.835 17.816L49.1431 18.3957C49.1923 18.4002 49.2414 18.4025 49.2895 18.4025C49.4995 18.4025 49.7074 18.3611 49.9015 18.2807C50.0955 18.2003 50.2717 18.0825 50.4202 17.9339L53.865 14.49C54.2851 14.0743 54.567 13.5393 54.6723 12.9577C54.7776 12.3762 54.7013 11.7763 54.4536 11.2397ZM48.6894 15.1422L41.8032 14.5095L41.1696 7.62325L43.6309 5.16144L44.1424 10.7236C44.1765 11.0956 44.3397 11.4439 44.6038 11.7081C44.8679 11.9722 45.2162 12.1356 45.5881 12.1698L51.1496 12.6812L48.6894 15.1422Z" fill="white"/>
<path d="M29.6407 21.4884C27.689 20.7705 25.5506 20.7419 23.5805 21.4074C21.6103 22.0728 19.9272 23.3923 18.8106 25.1465C17.694 26.9008 17.2112 28.9842 17.4423 31.0508C17.6735 33.1174 18.6047 35.0427 20.0813 36.5068C21.5579 37.971 23.4909 38.886 25.5594 39.0997C27.6278 39.3134 29.7072 38.8131 31.4519 37.6817C33.1967 36.5504 34.5019 34.8562 35.1507 32.8805C35.7995 30.9049 35.7529 28.7667 35.0186 26.8212L29.2055 32.6846C28.4962 33.3933 27.5348 33.7917 26.5322 33.7925C25.5295 33.7934 24.5674 33.3965 23.857 32.689C23.1465 31.9816 22.7456 31.0212 22.7422 30.0185C22.7388 29.0159 23.1332 28.0528 23.8389 27.3405L29.6407 21.4884Z" fill="white"/>
<path d="M48.9434 20.574L42.6351 19.9943C42.5845 19.9896 42.5339 19.9873 42.4835 19.9873C42.0424 19.9886 41.6198 20.1648 41.3085 20.4773L39.9443 21.8533C41.9463 25.1414 42.6756 29.0485 41.9946 32.8374C41.3136 36.6263 39.2694 40.0349 36.2478 42.4202C33.2262 44.8054 29.436 46.0022 25.5926 45.7848C21.7491 45.5674 18.1181 43.9508 15.3847 41.24C12.6513 38.5293 11.0046 34.9118 10.7552 31.0703C10.5059 27.2288 11.6711 23.4288 14.0311 20.3875C16.3911 17.3461 19.7826 15.2737 23.5657 14.5612C27.3489 13.8487 31.2619 14.5455 34.5665 16.5201L35.8656 15.2096C36.0359 15.0381 36.1665 14.8313 36.2481 14.6038C36.3298 14.3763 36.3605 14.1336 36.3381 13.893L35.7385 7.36948C35.7325 7.30351 35.7447 7.23937 35.7419 7.17357C30.4707 5.04819 24.6263 4.81275 19.2011 6.50721C13.776 8.20168 9.1045 11.7216 5.97993 16.4693C2.85537 21.217 1.47032 26.8998 2.05997 32.5527C2.64962 38.2057 5.17762 43.4803 9.21472 47.481C13.2518 51.4816 18.5491 53.9617 24.2072 54.5001C29.8652 55.0385 35.5352 53.602 40.2544 50.4345C44.9736 47.2671 48.451 42.5639 50.0963 37.1236C51.7415 31.6833 51.4531 25.8413 49.28 20.5895C49.1696 20.5892 49.0572 20.5844 48.9434 20.574Z" fill="white"/>
</svg>
