<svg width="1368" height="4894" viewBox="0 0 1368 4894" fill="none" xmlns="http://www.w3.org/2000/svg">
<path d="M173.121 1421C493.121 1469.5 1215.42 1617.86 1296.23 1881.23C1397.25 2210.44 400.578 2056.87 97.0254 2373.54C-206.527 2690.21 644.462 2769.94 1078.19 3001.36C1312.62 3126.44 463.623 3679.29 221.047 3774.21C-224.379 3948.5 33.6224 4509.42 1078.19 4509.42C1829.53 4509.42 882.63 4770.04 832.121 4893.5" stroke="#006E99" stroke-opacity="0.25" stroke-width="2" stroke-dasharray="12 12"/>
<path d="M1242.62 1C1221.62 36 1315.42 110.869 1278.62 131.5C1179.62 187 176.121 68.5 39.6205 228C-123.318 418.393 282.121 651 280.62 662.5C279.119 674 1102.82 1170.9 1179.62 1242.5C1275.62 1332 131.621 1256 117.621 1368C107.621 1382.17 104.821 1412.6 173.621 1421" stroke="#006E99" stroke-opacity="0.25" stroke-width="2" stroke-dasharray="12 12"/>
</svg>
